<?xml version="1.0" encoding="UTF-8"?>
<!DOCTYPE svg PUBLIC "-//W3C//DTD SVG 1.1//EN" "http://www.w3.org/Graphics/SVG/1.1/DTD/svg11.dtd">
<!-- Creator: CorelDRAW X7 -->
<svg xmlns="http://www.w3.org/2000/svg" xml:space="preserve" width="24.3726mm" height="9.1434mm" version="1.1" style="shape-rendering:geometricPrecision; text-rendering:geometricPrecision; image-rendering:optimizeQuality; fill-rule:evenodd; clip-rule:evenodd"
viewBox="0 0 6982 2619"
 xmlns:xlink="http://www.w3.org/1999/xlink">
 <defs>
  <style type="text/css">
   <![CDATA[
    .fil0 {fill:none}
    .fil1 {fill:#FEFEFE}
   ]]>
  </style>
 </defs>
 <g id="Слой_x0020_1">
  <metadata id="CorelCorpID_0Corel-Layer"/>
  <g id="_2172471227680">
   <rect class="fil0" width="6982" height="2619"/>
   <g id="_1360208976112">
    <path class="fil1" d="M2267 1640c0,-60 43,-137 121,-137 85,0 120,69 120,137l-241 0zm438 78c0,-215 -128,-352 -309,-352 -206,0 -326,163 -326,360 0,181 103,352 343,352 86,0 181,-25 275,-77l-43 -129c-77,35 -129,52 -197,52 -86,0 -172,-60 -181,-146l438 0 0 -60 0 0zm-1786 -78c0,-60 43,-137 129,-137 77,0 111,69 120,137l-249 0zm447 78c0,-215 -129,-352 -318,-352 -206,0 -318,163 -318,360 0,181 103,352 344,352 85,0 171,-25 266,-77l-43 -129c-77,35 -120,52 -189,52 -94,0 -180,-60 -180,-146l438 0 0 -60 0 0zm343 214l-86 0 0 -171 69 0c94,0 146,25 146,85 0,69 -69,86 -129,86l0 0zm-77 -421l77 0c77,0 112,26 112,61 0,60 -52,68 -129,68l-60 0 0 -129 0 0zm257 181l0 -9c60,-8 121,-51 121,-146 0,-103 -95,-146 -181,-154 -25,0 -86,0 -120,0l-275 0 0 678 232 0c26,0 60,0 95,0 120,-8 274,-51 274,-206 0,-103 -51,-146 -146,-163l0 0zm4329 232l-69 0 0 -189 60 0c69,0 146,8 146,94 0,78 -60,95 -137,95zm34 -327l-103 0 0 -249 -197 52 0 661 249 0c180,0 352,-51 352,-232 0,-163 -138,-232 -301,-232l0 0zm-1271 292c-17,18 -60,35 -111,35 -61,0 -104,-35 -104,-86 0,-52 43,-77 129,-77l86 -9 0 137 0 0zm-86 -523c-94,0 -180,17 -275,77l61 111c42,-25 103,-43 171,-43 69,0 129,35 129,104l0 8 -120 9c-172,0 -284,77 -284,223 0,137 95,223 224,223 86,0 146,-34 197,-77l26 60 155 0 0 -446c0,-181 -103,-250 -284,-250l0 1zm-1855 566c-34,0 -60,-8 -77,-25l0 -327c17,-34 77,-77 129,-77 86,0 129,52 129,197 0,112 -43,232 -181,232l0 0zm95 -566c-78,0 -138,34 -181,77l-25 -60 -164 0 0 1013 198 -60 0 -292c34,26 77,34 129,34 197,0 326,-171 326,-378 0,-214 -129,-334 -283,-334l0 0zm2207 94c0,240 -9,361 -52,421 -17,26 -51,43 -86,51l52 146c43,0 112,-25 163,-68 60,-60 77,-138 86,-224 9,-68 17,-146 17,-223l0 -34 155 0 0 532 189 0 0 -678 -524 0 0 77 0 0zm-936 69l0 532 -198 0 0 -532 -189 0 0 -146 593 0 -34 146 -172 0zm-610 549c-223,0 -335,-163 -335,-352 0,-223 146,-360 344,-360 94,0 137,17 171,43l0 146c-43,-35 -85,-43 -137,-43 -112,0 -189,85 -189,197 0,112 60,215 180,215 43,0 86,-17 138,-43l43 129c-52,43 -146,68 -215,68l0 0zm-3341 0c-292,0 -455,-214 -455,-481 0,-274 189,-498 498,-498 86,0 155,9 223,43l0 181c-85,-52 -154,-60 -214,-60 -206,0 -292,154 -292,317 0,181 103,327 275,327 77,0 137,-18 206,-60l51 146c-103,68 -197,85 -292,85z"/>
    <path class="fil1" d="M6561 240c18,0 26,9 35,18 26,25 43,77 51,120 0,34 0,69 0,112 -43,0 -94,17 -146,25 -86,26 -154,52 -206,86 -43,17 -68,35 -94,60 -43,26 -69,60 -77,103 -9,9 -9,26 -9,35 -34,-43 -60,-95 -86,-138 -17,-43 -34,-94 -26,-137 17,-35 52,-77 95,-103 34,-35 86,-60 137,-86 60,-26 120,-43 198,-69l0 0c43,-8 86,-17 128,-26l0 0zm-395 619c-8,-17 -8,-26 0,-43 9,-35 43,-69 78,-103 25,-17 60,-35 94,-52 26,35 60,69 95,112 68,60 120,103 180,137 34,26 69,43 94,52 43,17 95,34 129,17 17,0 26,-9 35,-17 -26,51 -52,103 -78,146 -26,34 -60,77 -103,86 -43,8 -94,0 -137,-26 -43,-17 -95,-43 -138,-77 -51,-35 -103,-78 -163,-138l0 0c-34,-25 -60,-60 -86,-94l0 0zm730 34c-8,9 -17,17 -34,17 -34,18 -86,0 -129,-17 -26,-8 -60,-26 -94,-43 17,-43 34,-94 51,-146 17,-86 35,-163 35,-223 0,-43 0,-77 -9,-112 0,-43 -17,-94 -52,-120 -8,-9 -17,-17 -34,-17 69,-9 120,-9 163,-9 52,9 103,17 138,43 25,35 43,86 43,138 8,43 8,103 0,163 0,60 -18,129 -35,197l0 0c-8,52 -25,95 -43,129z"/>
   </g>
  </g>
 </g>
</svg>
